<svg xmlns="http://www.w3.org/2000/svg" xmlns:xlink="http://www.w3.org/1999/xlink" width="1920" zoomAndPan="magnify" viewBox="0 0 1440 809.999993" height="1080" preserveAspectRatio="xMidYMid meet" version="1.0"><defs><g/><clipPath id="a8380f39c8"><path d="M 519.222656 169.652344 L 920.480469 169.652344 L 920.480469 260.15625 L 519.222656 260.15625 Z M 519.222656 169.652344 " clip-rule="nonzero"/></clipPath><clipPath id="bdb935d243"><path d="M 557.472656 169.652344 L 881.917969 169.652344 C 892.0625 169.652344 901.789062 173.683594 908.964844 180.855469 C 916.136719 188.03125 920.167969 197.757812 920.167969 207.902344 L 920.167969 221.90625 C 920.167969 232.050781 916.136719 241.78125 908.964844 248.953125 C 901.789062 256.128906 892.0625 260.15625 881.917969 260.15625 L 557.472656 260.15625 C 547.328125 260.15625 537.597656 256.128906 530.425781 248.953125 C 523.25 241.78125 519.222656 232.050781 519.222656 221.90625 L 519.222656 207.902344 C 519.222656 197.757812 523.25 188.03125 530.425781 180.855469 C 537.597656 173.683594 547.328125 169.652344 557.472656 169.652344 Z M 557.472656 169.652344 " clip-rule="nonzero"/></clipPath><clipPath id="5d38514068"><path d="M 519.222656 501.316406 L 920.480469 501.316406 L 920.480469 591.820312 L 519.222656 591.820312 Z M 519.222656 501.316406 " clip-rule="nonzero"/></clipPath><clipPath id="78180135f0"><path d="M 557.472656 501.316406 L 881.917969 501.316406 C 892.0625 501.316406 901.789062 505.34375 908.964844 512.519531 C 916.136719 519.691406 920.167969 529.421875 920.167969 539.566406 L 920.167969 553.570312 C 920.167969 563.714844 916.136719 573.441406 908.964844 580.617188 C 901.789062 587.789062 892.0625 591.820312 881.917969 591.820312 L 557.472656 591.820312 C 547.328125 591.820312 537.597656 587.789062 530.425781 580.617188 C 523.25 573.441406 519.222656 563.714844 519.222656 553.570312 L 519.222656 539.566406 C 519.222656 529.421875 523.25 519.691406 530.425781 512.519531 C 537.597656 505.34375 547.328125 501.316406 557.472656 501.316406 Z M 557.472656 501.316406 " clip-rule="nonzero"/></clipPath></defs><g clip-path="url(#a8380f39c8)"><g clip-path="url(#bdb935d243)"><path fill="#603e33" d="M 519.222656 169.652344 L 920.125 169.652344 L 920.125 260.15625 L 519.222656 260.15625 Z M 519.222656 169.652344 " fill-opacity="1" fill-rule="nonzero"/></g></g><g clip-path="url(#5d38514068)"><g clip-path="url(#78180135f0)"><path fill="#603e33" d="M 519.222656 501.316406 L 920.125 501.316406 L 920.125 591.820312 L 519.222656 591.820312 Z M 519.222656 501.316406 " fill-opacity="1" fill-rule="nonzero"/></g></g><g fill="#ffffff" fill-opacity="1"><g transform="translate(545.705482, 235.905126)"><g><path d="M 15.320312 -29.464844 L 32.683594 -29.464844 L 32.683594 -39.285156 L 2.59375 -39.285156 L 2.59375 0 L 15.320312 0 L 15.320312 -14.929688 L 32.683594 -14.929688 L 32.683594 -24.355469 L 15.320312 -24.355469 Z M 15.320312 -29.464844 "/></g></g></g><g fill="#ffffff" fill-opacity="1"><g transform="translate(580.981538, 235.905126)"><g><path d="M 32.292969 -16.96875 C 35.199219 -19.011719 36.769531 -22.3125 36.769531 -26.714844 C 36.769531 -34.726562 31.898438 -39.285156 23.335938 -39.285156 L 2.59375 -39.285156 L 2.59375 0 L 15.320312 0 L 15.320312 -14.140625 L 20.035156 -14.140625 C 23.175781 -13.59375 24.90625 -11.472656 24.90625 -8.09375 L 24.90625 0 L 36.535156 0 L 36.535156 -6.441406 C 36.535156 -11.15625 35.042969 -14.769531 32.292969 -16.96875 Z M 21.605469 -23.570312 L 15.320312 -23.570312 L 15.320312 -29.464844 L 21.605469 -29.464844 C 23.964844 -29.464844 25.378906 -28.441406 25.378906 -26.476562 C 25.378906 -24.671875 23.964844 -23.570312 21.605469 -23.570312 Z M 21.605469 -23.570312 "/></g></g></g><g fill="#ffffff" fill-opacity="1"><g transform="translate(619.871628, 235.905126)"><g><path d="M 2.59375 -39.285156 L 2.59375 -17.679688 C 2.59375 -6.050781 8.722656 0.628906 19.640625 0.628906 C 30.5625 0.628906 36.769531 -6.050781 36.769531 -17.679688 L 36.769531 -39.285156 L 23.964844 -39.285156 L 23.964844 -17.679688 C 23.964844 -13.042969 22.46875 -10.449219 19.71875 -10.449219 C 16.890625 -10.449219 15.320312 -13.042969 15.320312 -17.679688 L 15.320312 -39.285156 Z M 2.59375 -39.285156 "/></g></g></g><g fill="#ffffff" fill-opacity="1"><g transform="translate(659.154547, 235.905126)"><g><path d="M 15.320312 -39.285156 L 2.59375 -39.285156 L 2.59375 0 L 15.320312 0 Z M 15.320312 -39.285156 "/></g></g></g><g fill="#ffffff" fill-opacity="1"><g transform="translate(677.067559, 235.905126)"><g><path d="M 36.457031 -28.285156 L 36.457031 -39.285156 L 2.277344 -39.285156 L 2.277344 -28.285156 L 13.042969 -28.285156 L 13.042969 0 L 25.769531 0 L 25.769531 -28.285156 Z M 36.457031 -28.285156 "/></g></g></g><g fill="#ffffff" fill-opacity="1"><g transform="translate(715.800509, 235.905126)"><g/></g></g><g fill="#ffffff" fill-opacity="1"><g transform="translate(726.406893, 235.905126)"><g><path d="M 36.457031 -28.285156 L 36.457031 -39.285156 L 2.277344 -39.285156 L 2.277344 -28.285156 L 13.042969 -28.285156 L 13.042969 0 L 25.769531 0 L 25.769531 -28.285156 Z M 36.457031 -28.285156 "/></g></g></g><g fill="#ffffff" fill-opacity="1"><g transform="translate(765.139843, 235.905126)"><g><path d="M 15.320312 -29.464844 L 32.683594 -29.464844 L 32.683594 -39.285156 L 2.59375 -39.285156 L 2.59375 0 L 32.683594 0 L 32.683594 -9.820312 L 15.320312 -9.820312 L 15.320312 -14.929688 L 32.683594 -14.929688 L 32.683594 -24.355469 L 15.320312 -24.355469 Z M 15.320312 -29.464844 "/></g></g></g><g fill="#ffffff" fill-opacity="1"><g transform="translate(800.415888, 235.905126)"><g><path d="M 28.207031 -5.734375 L 30.25 0 L 42.664062 0 L 28.128906 -39.285156 L 15.242188 -39.285156 L 0.550781 0 L 12.886719 0 L 15.007812 -5.734375 Z M 24.75 -15.164062 L 18.464844 -15.164062 L 21.683594 -25.925781 Z M 24.75 -15.164062 "/></g></g></g><g fill="#ffffff" fill-opacity="1"><g transform="translate(545.705482, 567.566823)"><g><path d="M 20.585938 0.628906 C 32.371094 0.628906 39.046875 -6.757812 39.046875 -19.640625 C 39.046875 -32.605469 32.371094 -39.914062 20.585938 -39.914062 C 8.800781 -39.914062 2.121094 -32.605469 2.121094 -19.640625 C 2.121094 -6.757812 8.800781 0.628906 20.585938 0.628906 Z M 20.585938 -10.449219 C 16.8125 -10.449219 14.691406 -13.75 14.691406 -19.640625 C 14.691406 -25.613281 16.8125 -28.914062 20.585938 -28.914062 C 24.277344 -28.914062 26.398438 -25.613281 26.476562 -19.640625 C 26.398438 -13.75 24.277344 -10.449219 20.585938 -10.449219 Z M 20.585938 -10.449219 "/></g></g></g><g fill="#ffffff" fill-opacity="1"><g transform="translate(586.795411, 567.566823)"><g><path d="M 36.457031 -28.285156 L 36.457031 -39.285156 L 2.277344 -39.285156 L 2.277344 -28.285156 L 13.042969 -28.285156 L 13.042969 0 L 25.769531 0 L 25.769531 -28.285156 Z M 36.457031 -28.285156 "/></g></g></g><g fill="#ffffff" fill-opacity="1"><g transform="translate(625.528362, 567.566823)"><g><path d="M 36.769531 -39.285156 L 23.964844 -39.285156 L 23.964844 -25.140625 L 15.320312 -25.140625 L 15.320312 -39.285156 L 2.59375 -39.285156 L 2.59375 0 L 15.320312 0 L 15.320312 -14.140625 L 23.964844 -14.140625 L 23.964844 0 L 36.769531 0 Z M 36.769531 -39.285156 "/></g></g></g><g fill="#ffffff" fill-opacity="1"><g transform="translate(664.811281, 567.566823)"><g><path d="M 15.320312 -29.464844 L 32.683594 -29.464844 L 32.683594 -39.285156 L 2.59375 -39.285156 L 2.59375 0 L 32.683594 0 L 32.683594 -9.820312 L 15.320312 -9.820312 L 15.320312 -14.929688 L 32.683594 -14.929688 L 32.683594 -24.355469 L 15.320312 -24.355469 Z M 15.320312 -29.464844 "/></g></g></g><g fill="#ffffff" fill-opacity="1"><g transform="translate(700.087337, 567.566823)"><g><path d="M 32.292969 -16.96875 C 35.199219 -19.011719 36.769531 -22.3125 36.769531 -26.714844 C 36.769531 -34.726562 31.898438 -39.285156 23.335938 -39.285156 L 2.59375 -39.285156 L 2.59375 0 L 15.320312 0 L 15.320312 -14.140625 L 20.035156 -14.140625 C 23.175781 -13.59375 24.90625 -11.472656 24.90625 -8.09375 L 24.90625 0 L 36.535156 0 L 36.535156 -6.441406 C 36.535156 -11.15625 35.042969 -14.769531 32.292969 -16.96875 Z M 21.605469 -23.570312 L 15.320312 -23.570312 L 15.320312 -29.464844 L 21.605469 -29.464844 C 23.964844 -29.464844 25.378906 -28.441406 25.378906 -26.476562 C 25.378906 -24.671875 23.964844 -23.570312 21.605469 -23.570312 Z M 21.605469 -23.570312 "/></g></g></g><g fill="#603e33" fill-opacity="1"><g transform="translate(545.400795, 301.039177)"><g><path d="M 19.242188 -12.710938 C 21.253906 -13.644531 22.332031 -15.3125 22.332031 -17.621094 C 22.332031 -22.039062 19.488281 -24.542969 14.382812 -24.542969 L 1.621094 -24.542969 L 1.621094 0 L 13.054688 0 C 19.832031 0 23.660156 -2.503906 23.660156 -6.921875 C 23.660156 -9.769531 22.136719 -11.78125 19.242188 -12.710938 Z M 9.472656 -15.265625 L 9.472656 -18.40625 L 13.253906 -18.40625 C 14.429688 -18.257812 15.070312 -17.671875 15.070312 -16.738281 C 15.070312 -15.804688 14.429688 -15.265625 13.253906 -15.265625 Z M 13.742188 -6.136719 L 9.472656 -6.136719 L 9.472656 -9.621094 L 13.742188 -9.621094 C 15.117188 -9.621094 15.902344 -8.984375 15.902344 -7.851562 C 15.902344 -6.773438 15.117188 -6.136719 13.742188 -6.136719 Z M 13.742188 -6.136719 "/></g></g></g><g fill="#603e33" fill-opacity="1"><g transform="translate(570.431846, 301.039177)"><g><path d="M 20.417969 -6.871094 L 9.570312 -6.871094 L 9.570312 -24.542969 L 1.621094 -24.542969 L 1.621094 0 L 20.417969 0 Z M 20.417969 -6.871094 "/></g></g></g><g fill="#603e33" fill-opacity="1"><g transform="translate(592.223587, 301.039177)"><g><path d="M 1.621094 -24.542969 L 1.621094 -11.042969 C 1.621094 -3.78125 5.449219 0.394531 12.269531 0.394531 C 19.09375 0.394531 22.972656 -3.78125 22.972656 -11.042969 L 22.972656 -24.542969 L 14.972656 -24.542969 L 14.972656 -11.042969 C 14.972656 -8.148438 14.039062 -6.527344 12.320312 -6.527344 C 10.554688 -6.527344 9.570312 -8.148438 9.570312 -11.042969 L 9.570312 -24.542969 Z M 1.621094 -24.542969 "/></g></g></g><g fill="#603e33" fill-opacity="1"><g transform="translate(616.763832, 301.039177)"><g><path d="M 9.570312 -18.40625 L 20.417969 -18.40625 L 20.417969 -24.542969 L 1.621094 -24.542969 L 1.621094 0 L 20.417969 0 L 20.417969 -6.136719 L 9.570312 -6.136719 L 9.570312 -9.324219 L 20.417969 -9.324219 L 20.417969 -15.214844 L 9.570312 -15.214844 Z M 9.570312 -18.40625 "/></g></g></g><g fill="#603e33" fill-opacity="1"><g transform="translate(638.80097, 301.039177)"><g><path d="M 19.242188 -12.710938 C 21.253906 -13.644531 22.332031 -15.3125 22.332031 -17.621094 C 22.332031 -22.039062 19.488281 -24.542969 14.382812 -24.542969 L 1.621094 -24.542969 L 1.621094 0 L 13.054688 0 C 19.832031 0 23.660156 -2.503906 23.660156 -6.921875 C 23.660156 -9.769531 22.136719 -11.78125 19.242188 -12.710938 Z M 9.472656 -15.265625 L 9.472656 -18.40625 L 13.253906 -18.40625 C 14.429688 -18.257812 15.070312 -17.671875 15.070312 -16.738281 C 15.070312 -15.804688 14.429688 -15.265625 13.253906 -15.265625 Z M 13.742188 -6.136719 L 9.472656 -6.136719 L 9.472656 -9.621094 L 13.742188 -9.621094 C 15.117188 -9.621094 15.902344 -8.984375 15.902344 -7.851562 C 15.902344 -6.773438 15.117188 -6.136719 13.742188 -6.136719 Z M 13.742188 -6.136719 "/></g></g></g><g fill="#603e33" fill-opacity="1"><g transform="translate(663.832021, 301.039177)"><g><path d="M 9.570312 -18.40625 L 20.417969 -18.40625 L 20.417969 -24.542969 L 1.621094 -24.542969 L 1.621094 0 L 20.417969 0 L 20.417969 -6.136719 L 9.570312 -6.136719 L 9.570312 -9.324219 L 20.417969 -9.324219 L 20.417969 -15.214844 L 9.570312 -15.214844 Z M 9.570312 -18.40625 "/></g></g></g><g fill="#603e33" fill-opacity="1"><g transform="translate(685.869159, 301.039177)"><g><path d="M 20.171875 -10.601562 C 21.988281 -11.878906 22.972656 -13.941406 22.972656 -16.6875 C 22.972656 -21.695312 19.929688 -24.542969 14.578125 -24.542969 L 1.621094 -24.542969 L 1.621094 0 L 9.570312 0 L 9.570312 -8.835938 L 12.515625 -8.835938 C 14.480469 -8.492188 15.558594 -7.167969 15.558594 -5.054688 L 15.558594 0 L 22.824219 0 L 22.824219 -4.023438 C 22.824219 -6.96875 21.890625 -9.226562 20.171875 -10.601562 Z M 13.5 -14.726562 L 9.570312 -14.726562 L 9.570312 -18.40625 L 13.5 -18.40625 C 14.972656 -18.40625 15.855469 -17.769531 15.855469 -16.542969 C 15.855469 -15.414062 14.972656 -14.726562 13.5 -14.726562 Z M 13.5 -14.726562 "/></g></g></g><g fill="#603e33" fill-opacity="1"><g transform="translate(710.163996, 301.039177)"><g><path d="M 20.171875 -10.601562 C 21.988281 -11.878906 22.972656 -13.941406 22.972656 -16.6875 C 22.972656 -21.695312 19.929688 -24.542969 14.578125 -24.542969 L 1.621094 -24.542969 L 1.621094 0 L 9.570312 0 L 9.570312 -8.835938 L 12.515625 -8.835938 C 14.480469 -8.492188 15.558594 -7.167969 15.558594 -5.054688 L 15.558594 0 L 22.824219 0 L 22.824219 -4.023438 C 22.824219 -6.96875 21.890625 -9.226562 20.171875 -10.601562 Z M 13.5 -14.726562 L 9.570312 -14.726562 L 9.570312 -18.40625 L 13.5 -18.40625 C 14.972656 -18.40625 15.855469 -17.769531 15.855469 -16.542969 C 15.855469 -15.414062 14.972656 -14.726562 13.5 -14.726562 Z M 13.5 -14.726562 "/></g></g></g><g fill="#603e33" fill-opacity="1"><g transform="translate(734.458822, 301.039177)"><g><path d="M 24.640625 -24.542969 L 16.246094 -24.542969 L 12.566406 -16.589844 L 8.933594 -24.542969 L 0.539062 -24.542969 L 8.589844 -10.011719 L 8.589844 0 L 16.589844 0 L 16.589844 -10.011719 Z M 24.640625 -24.542969 "/></g></g></g><g fill="#603e33" fill-opacity="1"><g transform="translate(545.400795, 632.700947)"><g><path d="M 20.417969 -6.871094 L 9.570312 -6.871094 L 9.570312 -24.542969 L 1.621094 -24.542969 L 1.621094 0 L 20.417969 0 Z M 20.417969 -6.871094 "/></g></g></g><g fill="#603e33" fill-opacity="1"><g transform="translate(567.192535, 632.700947)"><g><path d="M 9.570312 -18.40625 L 20.417969 -18.40625 L 20.417969 -24.542969 L 1.621094 -24.542969 L 1.621094 0 L 20.417969 0 L 20.417969 -6.136719 L 9.570312 -6.136719 L 9.570312 -9.324219 L 20.417969 -9.324219 L 20.417969 -15.214844 L 9.570312 -15.214844 Z M 9.570312 -18.40625 "/></g></g></g><g fill="#603e33" fill-opacity="1"><g transform="translate(589.229673, 632.700947)"><g><path d="M 28.617188 0 L 28.617188 -24.542969 L 21.5 -24.542969 L 15.117188 -11.730469 L 8.738281 -24.542969 L 1.621094 -24.542969 L 1.621094 0 L 9.570312 0 L 9.570312 -9.867188 L 13.546875 -2.652344 L 16.6875 -2.652344 L 20.617188 -9.867188 L 20.617188 0 Z M 28.617188 0 "/></g></g></g><g fill="#603e33" fill-opacity="1"><g transform="translate(619.414177, 632.700947)"><g><path d="M 12.859375 0.394531 C 20.222656 0.394531 24.394531 -4.222656 24.394531 -12.269531 C 24.394531 -20.371094 20.222656 -24.933594 12.859375 -24.933594 C 5.496094 -24.933594 1.324219 -20.371094 1.324219 -12.269531 C 1.324219 -4.222656 5.496094 0.394531 12.859375 0.394531 Z M 12.859375 -6.527344 C 10.503906 -6.527344 9.179688 -8.589844 9.179688 -12.269531 C 9.179688 -16 10.503906 -18.0625 12.859375 -18.0625 C 15.167969 -18.0625 16.492188 -16 16.542969 -12.269531 C 16.492188 -8.589844 15.167969 -6.527344 12.859375 -6.527344 Z M 12.859375 -6.527344 "/></g></g></g><g fill="#603e33" fill-opacity="1"><g transform="translate(645.083272, 632.700947)"><g><path d="M 1.621094 0 L 9.570312 0 L 9.570312 -11.386719 L 16.246094 -0.0507812 L 22.972656 0 L 22.972656 -24.542969 L 14.972656 -24.542969 L 14.972656 -13.203125 L 8.34375 -24.589844 L 1.621094 -24.589844 Z M 1.621094 0 "/></g></g></g><g fill="#603e33" fill-opacity="1"><g transform="translate(669.623517, 632.700947)"><g><path d="M 17.621094 -3.582031 L 18.898438 0 L 26.652344 0 L 17.570312 -24.542969 L 9.523438 -24.542969 L 0.34375 0 L 8.050781 0 L 9.375 -3.582031 Z M 15.460938 -9.472656 L 11.535156 -9.472656 L 13.546875 -16.199219 Z M 15.460938 -9.472656 "/></g></g></g><g fill="#603e33" fill-opacity="1"><g transform="translate(696.5687, 632.700947)"><g><path d="M 11.4375 -24.542969 L 1.621094 -24.542969 L 1.621094 0 L 11.4375 0 C 18.800781 0 22.972656 -4.417969 22.972656 -12.269531 C 22.972656 -20.125 18.800781 -24.542969 11.4375 -24.542969 Z M 11.925781 -6.871094 L 9.570312 -6.871094 L 9.570312 -17.671875 L 11.925781 -17.671875 C 13.941406 -17.671875 15.117188 -15.757812 15.117188 -12.269531 C 15.117188 -8.835938 13.941406 -6.871094 11.925781 -6.871094 Z M 11.925781 -6.871094 "/></g></g></g><g fill="#603e33" fill-opacity="1"><g transform="translate(720.765378, 632.700947)"><g><path d="M 9.570312 -18.40625 L 20.417969 -18.40625 L 20.417969 -24.542969 L 1.621094 -24.542969 L 1.621094 0 L 20.417969 0 L 20.417969 -6.136719 L 9.570312 -6.136719 L 9.570312 -9.324219 L 20.417969 -9.324219 L 20.417969 -15.214844 L 9.570312 -15.214844 Z M 9.570312 -18.40625 "/></g></g></g><g fill="#603e33" fill-opacity="1"><g transform="translate(545.400795, 349.394166)"><g><path d="M 12.46875 0.34375 C 6.921875 0.394531 2.996094 -2.257812 1.621094 -6.96875 L 8.148438 -8.738281 C 8.738281 -6.921875 10.308594 -5.890625 12.46875 -5.890625 C 14.871094 -5.890625 16.246094 -6.429688 16.246094 -7.410156 C 16.246094 -10.257812 0.980469 -9.128906 0.980469 -17.375 C 0.980469 -22.1875 5.054688 -24.933594 12.320312 -24.933594 C 17.914062 -24.933594 21.84375 -22.285156 23.167969 -17.570312 L 16.6875 -15.804688 C 16.101562 -17.71875 14.527344 -18.800781 12.320312 -18.800781 C 9.914062 -18.800781 8.589844 -18.210938 8.589844 -17.179688 C 8.589844 -14.675781 23.804688 -15.460938 23.804688 -7.214844 C 23.804688 -2.308594 19.730469 0.441406 12.46875 0.34375 Z M 12.46875 0.34375 "/></g></g></g><g fill="#603e33" fill-opacity="1"><g transform="translate(570.431846, 349.394166)"><g><path d="M 22.773438 -17.671875 L 22.773438 -24.542969 L 1.421875 -24.542969 L 1.421875 -17.671875 L 8.148438 -17.671875 L 8.148438 0 L 16.101562 0 L 16.101562 -17.671875 Z M 22.773438 -17.671875 "/></g></g></g><g fill="#603e33" fill-opacity="1"><g transform="translate(594.628524, 349.394166)"><g><path d="M 20.171875 -10.601562 C 21.988281 -11.878906 22.972656 -13.941406 22.972656 -16.6875 C 22.972656 -21.695312 19.929688 -24.542969 14.578125 -24.542969 L 1.621094 -24.542969 L 1.621094 0 L 9.570312 0 L 9.570312 -8.835938 L 12.515625 -8.835938 C 14.480469 -8.492188 15.558594 -7.167969 15.558594 -5.054688 L 15.558594 0 L 22.824219 0 L 22.824219 -4.023438 C 22.824219 -6.96875 21.890625 -9.226562 20.171875 -10.601562 Z M 13.5 -14.726562 L 9.570312 -14.726562 L 9.570312 -18.40625 L 13.5 -18.40625 C 14.972656 -18.40625 15.855469 -17.769531 15.855469 -16.542969 C 15.855469 -15.414062 14.972656 -14.726562 13.5 -14.726562 Z M 13.5 -14.726562 "/></g></g></g><g fill="#603e33" fill-opacity="1"><g transform="translate(618.923361, 349.394166)"><g><path d="M 17.621094 -3.582031 L 18.898438 0 L 26.652344 0 L 17.570312 -24.542969 L 9.523438 -24.542969 L 0.34375 0 L 8.050781 0 L 9.375 -3.582031 Z M 15.460938 -9.472656 L 11.535156 -9.472656 L 13.546875 -16.199219 Z M 15.460938 -9.472656 "/></g></g></g><g fill="#603e33" fill-opacity="1"><g transform="translate(645.868544, 349.394166)"><g><path d="M 34.210938 -24.542969 L 26.996094 -24.542969 L 23.609375 -10.40625 L 20.222656 -24.542969 L 14.429688 -24.542969 L 11.09375 -10.40625 L 7.707031 -24.542969 L 0.441406 -24.542969 L 7.707031 0 L 14.285156 0 L 17.375 -12.027344 L 20.417969 0 L 26.949219 0 Z M 34.210938 -24.542969 "/></g></g></g><g fill="#603e33" fill-opacity="1"><g transform="translate(680.519366, 349.394166)"><g><path d="M 19.242188 -12.710938 C 21.253906 -13.644531 22.332031 -15.3125 22.332031 -17.621094 C 22.332031 -22.039062 19.488281 -24.542969 14.382812 -24.542969 L 1.621094 -24.542969 L 1.621094 0 L 13.054688 0 C 19.832031 0 23.660156 -2.503906 23.660156 -6.921875 C 23.660156 -9.769531 22.136719 -11.78125 19.242188 -12.710938 Z M 9.472656 -15.265625 L 9.472656 -18.40625 L 13.253906 -18.40625 C 14.429688 -18.257812 15.070312 -17.671875 15.070312 -16.738281 C 15.070312 -15.804688 14.429688 -15.265625 13.253906 -15.265625 Z M 13.742188 -6.136719 L 9.472656 -6.136719 L 9.472656 -9.621094 L 13.742188 -9.621094 C 15.117188 -9.621094 15.902344 -8.984375 15.902344 -7.851562 C 15.902344 -6.773438 15.117188 -6.136719 13.742188 -6.136719 Z M 13.742188 -6.136719 "/></g></g></g><g fill="#603e33" fill-opacity="1"><g transform="translate(705.550418, 349.394166)"><g><path d="M 9.570312 -18.40625 L 20.417969 -18.40625 L 20.417969 -24.542969 L 1.621094 -24.542969 L 1.621094 0 L 20.417969 0 L 20.417969 -6.136719 L 9.570312 -6.136719 L 9.570312 -9.324219 L 20.417969 -9.324219 L 20.417969 -15.214844 L 9.570312 -15.214844 Z M 9.570312 -18.40625 "/></g></g></g><g fill="#603e33" fill-opacity="1"><g transform="translate(727.587556, 349.394166)"><g><path d="M 20.171875 -10.601562 C 21.988281 -11.878906 22.972656 -13.941406 22.972656 -16.6875 C 22.972656 -21.695312 19.929688 -24.542969 14.578125 -24.542969 L 1.621094 -24.542969 L 1.621094 0 L 9.570312 0 L 9.570312 -8.835938 L 12.515625 -8.835938 C 14.480469 -8.492188 15.558594 -7.167969 15.558594 -5.054688 L 15.558594 0 L 22.824219 0 L 22.824219 -4.023438 C 22.824219 -6.96875 21.890625 -9.226562 20.171875 -10.601562 Z M 13.5 -14.726562 L 9.570312 -14.726562 L 9.570312 -18.40625 L 13.5 -18.40625 C 14.972656 -18.40625 15.855469 -17.769531 15.855469 -16.542969 C 15.855469 -15.414062 14.972656 -14.726562 13.5 -14.726562 Z M 13.5 -14.726562 "/></g></g></g><g fill="#603e33" fill-opacity="1"><g transform="translate(751.882381, 349.394166)"><g><path d="M 20.171875 -10.601562 C 21.988281 -11.878906 22.972656 -13.941406 22.972656 -16.6875 C 22.972656 -21.695312 19.929688 -24.542969 14.578125 -24.542969 L 1.621094 -24.542969 L 1.621094 0 L 9.570312 0 L 9.570312 -8.835938 L 12.515625 -8.835938 C 14.480469 -8.492188 15.558594 -7.167969 15.558594 -5.054688 L 15.558594 0 L 22.824219 0 L 22.824219 -4.023438 C 22.824219 -6.96875 21.890625 -9.226562 20.171875 -10.601562 Z M 13.5 -14.726562 L 9.570312 -14.726562 L 9.570312 -18.40625 L 13.5 -18.40625 C 14.972656 -18.40625 15.855469 -17.769531 15.855469 -16.542969 C 15.855469 -15.414062 14.972656 -14.726562 13.5 -14.726562 Z M 13.5 -14.726562 "/></g></g></g><g fill="#603e33" fill-opacity="1"><g transform="translate(776.177218, 349.394166)"><g><path d="M 24.640625 -24.542969 L 16.246094 -24.542969 L 12.566406 -16.589844 L 8.933594 -24.542969 L 0.539062 -24.542969 L 8.589844 -10.011719 L 8.589844 0 L 16.589844 0 L 16.589844 -10.011719 Z M 24.640625 -24.542969 "/></g></g></g><g fill="#603e33" fill-opacity="1"><g transform="translate(545.400795, 397.749124)"><g><path d="M 20.417969 -6.871094 L 9.570312 -6.871094 L 9.570312 -24.542969 L 1.621094 -24.542969 L 1.621094 0 L 20.417969 0 Z M 20.417969 -6.871094 "/></g></g></g><g fill="#603e33" fill-opacity="1"><g transform="translate(567.192535, 397.749124)"><g><path d="M 24.640625 -24.542969 L 16.246094 -24.542969 L 12.566406 -16.589844 L 8.933594 -24.542969 L 0.539062 -24.542969 L 8.589844 -10.011719 L 8.589844 0 L 16.589844 0 L 16.589844 -10.011719 Z M 24.640625 -24.542969 "/></g></g></g><g fill="#603e33" fill-opacity="1"><g transform="translate(592.125428, 397.749124)"><g><path d="M 15.460938 -10.257812 L 23.167969 -9.03125 C 21.941406 -3.042969 18.0625 0.394531 12.371094 0.394531 C 5.300781 0.394531 1.324219 -4.222656 1.324219 -12.269531 C 1.324219 -20.371094 5.300781 -24.933594 12.371094 -24.933594 C 18.0625 -24.933594 21.941406 -21.546875 23.167969 -15.511719 L 15.460938 -14.285156 C 15.070312 -16.6875 13.941406 -18.0625 12.417969 -18.0625 C 10.355469 -18.0625 9.179688 -16 9.179688 -12.269531 C 9.179688 -8.589844 10.355469 -6.527344 12.417969 -6.527344 C 14.039062 -6.527344 15.117188 -7.851562 15.460938 -10.257812 Z M 15.460938 -10.257812 "/></g></g></g><g fill="#603e33" fill-opacity="1"><g transform="translate(616.567515, 397.749124)"><g><path d="M 22.972656 -24.542969 L 14.972656 -24.542969 L 14.972656 -15.707031 L 9.570312 -15.707031 L 9.570312 -24.542969 L 1.621094 -24.542969 L 1.621094 0 L 9.570312 0 L 9.570312 -8.835938 L 14.972656 -8.835938 L 14.972656 0 L 22.972656 0 Z M 22.972656 -24.542969 "/></g></g></g><g fill="#603e33" fill-opacity="1"><g transform="translate(641.10776, 397.749124)"><g><path d="M 9.570312 -18.40625 L 20.417969 -18.40625 L 20.417969 -24.542969 L 1.621094 -24.542969 L 1.621094 0 L 20.417969 0 L 20.417969 -6.136719 L 9.570312 -6.136719 L 9.570312 -9.324219 L 20.417969 -9.324219 L 20.417969 -15.214844 L 9.570312 -15.214844 Z M 9.570312 -18.40625 "/></g></g></g><g fill="#603e33" fill-opacity="1"><g transform="translate(663.144898, 397.749124)"><g><path d="M 9.570312 -18.40625 L 20.417969 -18.40625 L 20.417969 -24.542969 L 1.621094 -24.542969 L 1.621094 0 L 20.417969 0 L 20.417969 -6.136719 L 9.570312 -6.136719 L 9.570312 -9.324219 L 20.417969 -9.324219 L 20.417969 -15.214844 L 9.570312 -15.214844 Z M 9.570312 -18.40625 "/></g></g></g><g fill="#603e33" fill-opacity="1"><g transform="translate(545.400795, 446.09558)"><g><path d="M 14.921875 0 L 23.21875 0 L 15.558594 -14.085938 L 23.070312 -24.542969 L 15.070312 -24.542969 L 9.570312 -16.738281 L 9.570312 -24.542969 L 1.621094 -24.542969 L 1.621094 0 L 9.570312 0 L 9.570312 -5.644531 L 10.847656 -7.511719 Z M 14.921875 0 "/></g></g></g><g fill="#603e33" fill-opacity="1"><g transform="translate(568.714032, 446.09558)"><g><path d="M 9.570312 -24.542969 L 1.621094 -24.542969 L 1.621094 0 L 9.570312 0 Z M 9.570312 -24.542969 "/></g></g></g><g fill="#603e33" fill-opacity="1"><g transform="translate(579.904379, 446.09558)"><g><path d="M 34.210938 -24.542969 L 26.996094 -24.542969 L 23.609375 -10.40625 L 20.222656 -24.542969 L 14.429688 -24.542969 L 11.09375 -10.40625 L 7.707031 -24.542969 L 0.441406 -24.542969 L 7.707031 0 L 14.285156 0 L 17.375 -12.027344 L 20.417969 0 L 26.949219 0 Z M 34.210938 -24.542969 "/></g></g></g><g fill="#603e33" fill-opacity="1"><g transform="translate(614.555201, 446.09558)"><g><path d="M 9.570312 -24.542969 L 1.621094 -24.542969 L 1.621094 0 L 9.570312 0 Z M 9.570312 -24.542969 "/></g></g></g></svg>