<svg xmlns="http://www.w3.org/2000/svg" xmlns:xlink="http://www.w3.org/1999/xlink" width="1920" zoomAndPan="magnify" viewBox="0 0 1440 809.999993" height="1080" preserveAspectRatio="xMidYMid meet" version="1.0"><defs><g/></defs><g fill="#ecba7f" fill-opacity="1"><g transform="translate(565.982841, 214.407811)"><g><path d="M 28.207031 -5.734375 L 30.25 0 L 42.664062 0 L 28.128906 -39.285156 L 15.242188 -39.285156 L 0.550781 0 L 12.886719 0 L 15.007812 -5.734375 Z M 24.75 -15.164062 L 18.464844 -15.164062 L 21.683594 -25.925781 Z M 24.75 -15.164062 "/></g></g></g><g fill="#ecba7f" fill-opacity="1"><g transform="translate(609.115484, 214.407811)"><g><path d="M 18.304688 -39.285156 L 2.59375 -39.285156 L 2.59375 0 L 18.304688 0 C 30.089844 0 36.769531 -7.070312 36.769531 -19.640625 C 36.769531 -32.210938 30.089844 -39.285156 18.304688 -39.285156 Z M 19.09375 -11 L 15.320312 -11 L 15.320312 -28.285156 L 19.09375 -28.285156 C 22.3125 -28.285156 24.199219 -25.21875 24.199219 -19.640625 C 24.199219 -14.140625 22.3125 -11 19.09375 -11 Z M 19.09375 -11 "/></g></g></g><g fill="#ecba7f" fill-opacity="1"><g transform="translate(647.848434, 214.407811)"><g><path d="M 18.304688 -39.285156 L 2.59375 -39.285156 L 2.59375 0 L 18.304688 0 C 30.089844 0 36.769531 -7.070312 36.769531 -19.640625 C 36.769531 -32.210938 30.089844 -39.285156 18.304688 -39.285156 Z M 19.09375 -11 L 15.320312 -11 L 15.320312 -28.285156 L 19.09375 -28.285156 C 22.3125 -28.285156 24.199219 -25.21875 24.199219 -19.640625 C 24.199219 -14.140625 22.3125 -11 19.09375 -11 Z M 19.09375 -11 "/></g></g></g><g fill="#ecba7f" fill-opacity="1"><g transform="translate(686.581384, 214.407811)"><g><path d="M 19.5625 -25.140625 L 2.042969 -25.140625 L 2.042969 -14.140625 L 19.5625 -14.140625 Z M 19.5625 -25.140625 "/></g></g></g><g fill="#ecba7f" fill-opacity="1"><g transform="translate(708.186993, 214.407811)"><g><path d="M 20.585938 0.628906 C 32.371094 0.628906 39.046875 -6.757812 39.046875 -19.640625 C 39.046875 -32.605469 32.371094 -39.914062 20.585938 -39.914062 C 8.800781 -39.914062 2.121094 -32.605469 2.121094 -19.640625 C 2.121094 -6.757812 8.800781 0.628906 20.585938 0.628906 Z M 20.585938 -10.449219 C 16.8125 -10.449219 14.691406 -13.75 14.691406 -19.640625 C 14.691406 -25.613281 16.8125 -28.914062 20.585938 -28.914062 C 24.277344 -28.914062 26.398438 -25.613281 26.476562 -19.640625 C 26.398438 -13.75 24.277344 -10.449219 20.585938 -10.449219 Z M 20.585938 -10.449219 "/></g></g></g><g fill="#ecba7f" fill-opacity="1"><g transform="translate(749.276922, 214.407811)"><g><path d="M 2.59375 0 L 15.320312 0 L 15.320312 -18.226562 L 26.007812 -0.078125 L 36.769531 0 L 36.769531 -39.285156 L 23.964844 -39.285156 L 23.964844 -21.132812 L 13.355469 -39.363281 L 2.59375 -39.363281 Z M 2.59375 0 "/></g></g></g><g fill="#ecba7f" fill-opacity="1"><g transform="translate(788.559841, 214.407811)"><g><path d="M 19.957031 0.550781 C 11.078125 0.628906 4.792969 -3.613281 2.59375 -11.15625 L 13.042969 -13.984375 C 13.984375 -11.078125 16.5 -9.429688 19.957031 -9.429688 C 23.804688 -9.429688 26.007812 -10.292969 26.007812 -11.863281 C 26.007812 -16.421875 1.570312 -14.613281 1.570312 -27.8125 C 1.570312 -35.511719 8.09375 -39.914062 19.71875 -39.914062 C 28.675781 -39.914062 34.960938 -35.667969 37.085938 -28.128906 L 26.714844 -25.300781 C 25.769531 -28.363281 23.257812 -30.089844 19.71875 -30.089844 C 15.871094 -30.089844 13.75 -29.148438 13.75 -27.5 C 13.75 -23.492188 38.105469 -24.75 38.105469 -11.550781 C 38.105469 -3.691406 31.585938 0.707031 19.957031 0.550781 Z M 19.957031 0.550781 "/></g></g></g><g fill="#ecba7f" fill-opacity="1"><g transform="translate(565.982841, 264.910862)"><g><path d="M 9.027344 -17.355469 L 19.253906 -17.355469 L 19.253906 -23.144531 L 1.527344 -23.144531 L 1.527344 0 L 9.027344 0 L 9.027344 -8.792969 L 19.253906 -8.792969 L 19.253906 -14.347656 L 9.027344 -14.347656 Z M 9.027344 -17.355469 "/></g></g></g><g fill="#ecba7f" fill-opacity="1"><g transform="translate(586.759142, 264.910862)"><g><path d="M 12.125 0.371094 C 19.070312 0.371094 23.003906 -3.980469 23.003906 -11.570312 C 23.003906 -19.207031 19.070312 -23.511719 12.125 -23.511719 C 5.183594 -23.511719 1.25 -19.207031 1.25 -11.570312 C 1.25 -3.980469 5.183594 0.371094 12.125 0.371094 Z M 12.125 -6.15625 C 9.90625 -6.15625 8.65625 -8.101562 8.65625 -11.570312 C 8.65625 -15.089844 9.90625 -17.03125 12.125 -17.03125 C 14.300781 -17.03125 15.550781 -15.089844 15.597656 -11.570312 C 15.550781 -8.101562 14.300781 -6.15625 12.125 -6.15625 Z M 12.125 -6.15625 "/></g></g></g><g fill="#ecba7f" fill-opacity="1"><g transform="translate(610.959607, 264.910862)"><g><path d="M 19.023438 -9.996094 C 20.734375 -11.199219 21.660156 -13.144531 21.660156 -15.738281 C 21.660156 -20.457031 18.792969 -23.144531 13.746094 -23.144531 L 1.527344 -23.144531 L 1.527344 0 L 9.027344 0 L 9.027344 -8.332031 L 11.804688 -8.332031 C 13.652344 -8.007812 14.671875 -6.757812 14.671875 -4.765625 L 14.671875 0 L 21.523438 0 L 21.523438 -3.796875 C 21.523438 -6.574219 20.644531 -8.703125 19.023438 -9.996094 Z M 12.730469 -13.886719 L 9.027344 -13.886719 L 9.027344 -17.355469 L 12.730469 -17.355469 C 14.117188 -17.355469 14.949219 -16.753906 14.949219 -15.597656 C 14.949219 -14.535156 14.117188 -13.886719 12.730469 -13.886719 Z M 12.730469 -13.886719 "/></g></g></g><g fill="#ecba7f" fill-opacity="1"><g transform="translate(633.864441, 264.910862)"><g/></g></g><g fill="#ecba7f" fill-opacity="1"><g transform="translate(640.111209, 264.910862)"><g><path d="M 26.984375 0 L 26.984375 -23.144531 L 20.273438 -23.144531 L 14.257812 -11.0625 L 8.238281 -23.144531 L 1.527344 -23.144531 L 1.527344 0 L 9.027344 0 L 9.027344 -9.304688 L 12.773438 -2.5 L 15.738281 -2.5 L 19.441406 -9.304688 L 19.441406 0 Z M 26.984375 0 "/></g></g></g><g fill="#ecba7f" fill-opacity="1"><g transform="translate(668.568727, 264.910862)"><g><path d="M 9.027344 -23.144531 L 1.527344 -23.144531 L 1.527344 0 L 9.027344 0 Z M 9.027344 -23.144531 "/></g></g></g><g fill="#ecba7f" fill-opacity="1"><g transform="translate(679.118829, 264.910862)"><g><path d="M 19.253906 -6.480469 L 9.027344 -6.480469 L 9.027344 -23.144531 L 1.527344 -23.144531 L 1.527344 0 L 19.253906 0 Z M 19.253906 -6.480469 "/></g></g></g><g fill="#ecba7f" fill-opacity="1"><g transform="translate(699.663777, 264.910862)"><g><path d="M 14.070312 0 L 21.894531 0 L 14.671875 -13.285156 L 21.753906 -23.144531 L 14.210938 -23.144531 L 9.027344 -15.785156 L 9.027344 -23.144531 L 1.527344 -23.144531 L 1.527344 0 L 9.027344 0 L 9.027344 -5.324219 L 10.230469 -7.082031 Z M 14.070312 0 "/></g></g></g><g fill="#ecba7f" fill-opacity="1"><g transform="translate(721.643161, 264.910862)"><g><path d="M 21.476562 -16.664062 L 21.476562 -23.144531 L 1.34375 -23.144531 L 1.34375 -16.664062 L 7.683594 -16.664062 L 7.683594 0 L 15.183594 0 L 15.183594 -16.664062 Z M 21.476562 -16.664062 "/></g></g></g><g fill="#ecba7f" fill-opacity="1"><g transform="translate(744.455446, 264.910862)"><g><path d="M 9.027344 -17.355469 L 19.253906 -17.355469 L 19.253906 -23.144531 L 1.527344 -23.144531 L 1.527344 0 L 19.253906 0 L 19.253906 -5.785156 L 9.027344 -5.785156 L 9.027344 -8.792969 L 19.253906 -8.792969 L 19.253906 -14.347656 L 9.027344 -14.347656 Z M 9.027344 -17.355469 "/></g></g></g><g fill="#ecba7f" fill-opacity="1"><g transform="translate(765.231747, 264.910862)"><g><path d="M 16.617188 -3.378906 L 17.820312 0 L 25.132812 0 L 16.570312 -23.144531 L 8.980469 -23.144531 L 0.324219 0 L 7.589844 0 L 8.839844 -3.378906 Z M 14.578125 -8.933594 L 10.878906 -8.933594 L 12.773438 -15.273438 Z M 14.578125 -8.933594 "/></g></g></g><g fill="#ecba7f" fill-opacity="1"><g transform="translate(790.635295, 264.910862)"><g/></g></g><g fill="#ecba7f" fill-opacity="1"><g transform="translate(796.882075, 264.910862)"><g><path d="M 16.617188 -3.378906 L 17.820312 0 L 25.132812 0 L 16.570312 -23.144531 L 8.980469 -23.144531 L 0.324219 0 L 7.589844 0 L 8.839844 -3.378906 Z M 14.578125 -8.933594 L 10.878906 -8.933594 L 12.773438 -15.273438 Z M 14.578125 -8.933594 "/></g></g></g><g fill="#ecba7f" fill-opacity="1"><g transform="translate(822.285623, 264.910862)"><g><path d="M 1.527344 0 L 9.027344 0 L 9.027344 -10.738281 L 15.320312 -0.046875 L 21.660156 0 L 21.660156 -23.144531 L 14.117188 -23.144531 L 14.117188 -12.449219 L 7.867188 -23.1875 L 1.527344 -23.1875 Z M 1.527344 0 "/></g></g></g><g fill="#ecba7f" fill-opacity="1"><g transform="translate(845.421822, 264.910862)"><g><path d="M 10.785156 -23.144531 L 1.527344 -23.144531 L 1.527344 0 L 10.785156 0 C 17.726562 0 21.660156 -4.164062 21.660156 -11.570312 C 21.660156 -18.976562 17.726562 -23.144531 10.785156 -23.144531 Z M 11.246094 -6.480469 L 9.027344 -6.480469 L 9.027344 -16.664062 L 11.246094 -16.664062 C 13.144531 -16.664062 14.257812 -14.859375 14.257812 -11.570312 C 14.257812 -8.332031 13.144531 -6.480469 11.246094 -6.480469 Z M 11.246094 -6.480469 "/></g></g></g><g fill="#ecba7f" fill-opacity="1"><g transform="translate(868.244549, 264.910862)"><g/></g></g><g fill="#ecba7f" fill-opacity="1"><g transform="translate(565.982841, 309.91086)"><g><path d="M 14.578125 -9.671875 L 21.847656 -8.515625 C 20.691406 -2.871094 17.03125 0.371094 11.664062 0.371094 C 5 0.371094 1.25 -3.980469 1.25 -11.570312 C 1.25 -19.207031 5 -23.511719 11.664062 -23.511719 C 17.03125 -23.511719 20.691406 -20.320312 21.847656 -14.625 L 14.578125 -13.46875 C 14.210938 -15.738281 13.144531 -17.03125 11.710938 -17.03125 C 9.765625 -17.03125 8.65625 -15.089844 8.65625 -11.570312 C 8.65625 -8.101562 9.765625 -6.15625 11.710938 -6.15625 C 13.238281 -6.15625 14.257812 -7.40625 14.578125 -9.671875 Z M 14.578125 -9.671875 "/></g></g></g><g fill="#ecba7f" fill-opacity="1"><g transform="translate(589.026492, 309.91086)"><g><path d="M 19.023438 -9.996094 C 20.734375 -11.199219 21.660156 -13.144531 21.660156 -15.738281 C 21.660156 -20.457031 18.792969 -23.144531 13.746094 -23.144531 L 1.527344 -23.144531 L 1.527344 0 L 9.027344 0 L 9.027344 -8.332031 L 11.804688 -8.332031 C 13.652344 -8.007812 14.671875 -6.757812 14.671875 -4.765625 L 14.671875 0 L 21.523438 0 L 21.523438 -3.796875 C 21.523438 -6.574219 20.644531 -8.703125 19.023438 -9.996094 Z M 12.730469 -13.886719 L 9.027344 -13.886719 L 9.027344 -17.355469 L 12.730469 -17.355469 C 14.117188 -17.355469 14.949219 -16.753906 14.949219 -15.597656 C 14.949219 -14.535156 14.117188 -13.886719 12.730469 -13.886719 Z M 12.730469 -13.886719 "/></g></g></g><g fill="#ecba7f" fill-opacity="1"><g transform="translate(611.931326, 309.91086)"><g><path d="M 9.027344 -17.355469 L 19.253906 -17.355469 L 19.253906 -23.144531 L 1.527344 -23.144531 L 1.527344 0 L 19.253906 0 L 19.253906 -5.785156 L 9.027344 -5.785156 L 9.027344 -8.792969 L 19.253906 -8.792969 L 19.253906 -14.347656 L 9.027344 -14.347656 Z M 9.027344 -17.355469 "/></g></g></g><g fill="#ecba7f" fill-opacity="1"><g transform="translate(632.707627, 309.91086)"><g><path d="M 16.617188 -3.378906 L 17.820312 0 L 25.132812 0 L 16.570312 -23.144531 L 8.980469 -23.144531 L 0.324219 0 L 7.589844 0 L 8.839844 -3.378906 Z M 14.578125 -8.933594 L 10.878906 -8.933594 L 12.773438 -15.273438 Z M 14.578125 -8.933594 "/></g></g></g><g fill="#ecba7f" fill-opacity="1"><g transform="translate(658.111175, 309.91086)"><g><path d="M 26.984375 0 L 26.984375 -23.144531 L 20.273438 -23.144531 L 14.257812 -11.0625 L 8.238281 -23.144531 L 1.527344 -23.144531 L 1.527344 0 L 9.027344 0 L 9.027344 -9.304688 L 12.773438 -2.5 L 15.738281 -2.5 L 19.441406 -9.304688 L 19.441406 0 Z M 26.984375 0 "/></g></g></g><g fill="#ecba7f" fill-opacity="1"><g transform="translate(686.568692, 309.91086)"><g><path d="M 14.578125 -9.671875 L 21.847656 -8.515625 C 20.691406 -2.871094 17.03125 0.371094 11.664062 0.371094 C 5 0.371094 1.25 -3.980469 1.25 -11.570312 C 1.25 -19.207031 5 -23.511719 11.664062 -23.511719 C 17.03125 -23.511719 20.691406 -20.320312 21.847656 -14.625 L 14.578125 -13.46875 C 14.210938 -15.738281 13.144531 -17.03125 11.710938 -17.03125 C 9.765625 -17.03125 8.65625 -15.089844 8.65625 -11.570312 C 8.65625 -8.101562 9.765625 -6.15625 11.710938 -6.15625 C 13.238281 -6.15625 14.257812 -7.40625 14.578125 -9.671875 Z M 14.578125 -9.671875 "/></g></g></g><g fill="#ecba7f" fill-opacity="1"><g transform="translate(709.612343, 309.91086)"><g><path d="M 21.660156 -23.144531 L 14.117188 -23.144531 L 14.117188 -14.8125 L 9.027344 -14.8125 L 9.027344 -23.144531 L 1.527344 -23.144531 L 1.527344 0 L 9.027344 0 L 9.027344 -8.332031 L 14.117188 -8.332031 L 14.117188 0 L 21.660156 0 Z M 21.660156 -23.144531 "/></g></g></g><g fill="#ecba7f" fill-opacity="1"><g transform="translate(732.748542, 309.91086)"><g><path d="M 9.027344 -17.355469 L 19.253906 -17.355469 L 19.253906 -23.144531 L 1.527344 -23.144531 L 1.527344 0 L 19.253906 0 L 19.253906 -5.785156 L 9.027344 -5.785156 L 9.027344 -8.792969 L 19.253906 -8.792969 L 19.253906 -14.347656 L 9.027344 -14.347656 Z M 9.027344 -17.355469 "/></g></g></g><g fill="#ecba7f" fill-opacity="1"><g transform="translate(753.524843, 309.91086)"><g><path d="M 9.027344 -17.355469 L 19.253906 -17.355469 L 19.253906 -23.144531 L 1.527344 -23.144531 L 1.527344 0 L 19.253906 0 L 19.253906 -5.785156 L 9.027344 -5.785156 L 9.027344 -8.792969 L 19.253906 -8.792969 L 19.253906 -14.347656 L 9.027344 -14.347656 Z M 9.027344 -17.355469 "/></g></g></g><g fill="#ecba7f" fill-opacity="1"><g transform="translate(774.301144, 309.91086)"><g><path d="M 11.757812 0.324219 C 6.527344 0.371094 2.824219 -2.128906 1.527344 -6.574219 L 7.683594 -8.238281 C 8.238281 -6.527344 9.71875 -5.554688 11.757812 -5.554688 C 14.023438 -5.554688 15.320312 -6.0625 15.320312 -6.988281 C 15.320312 -9.671875 0.925781 -8.609375 0.925781 -16.386719 C 0.925781 -20.921875 4.765625 -23.511719 11.617188 -23.511719 C 16.894531 -23.511719 20.597656 -21.015625 21.847656 -16.570312 L 15.738281 -14.902344 C 15.183594 -16.710938 13.699219 -17.726562 11.617188 -17.726562 C 9.351562 -17.726562 8.101562 -17.171875 8.101562 -16.199219 C 8.101562 -13.839844 22.449219 -14.578125 22.449219 -6.804688 C 22.449219 -2.175781 18.605469 0.417969 11.757812 0.324219 Z M 11.757812 0.324219 "/></g></g></g><g fill="#ecba7f" fill-opacity="1"><g transform="translate(797.90005, 309.91086)"><g><path d="M 9.027344 -17.355469 L 19.253906 -17.355469 L 19.253906 -23.144531 L 1.527344 -23.144531 L 1.527344 0 L 19.253906 0 L 19.253906 -5.785156 L 9.027344 -5.785156 L 9.027344 -8.792969 L 19.253906 -8.792969 L 19.253906 -14.347656 L 9.027344 -14.347656 Z M 9.027344 -17.355469 "/></g></g></g><g fill="#ecba7f" fill-opacity="1"><g transform="translate(565.420353, 448.178973)"><g><path d="M 9.582031 -18.425781 L 20.441406 -18.425781 L 20.441406 -24.566406 L 1.621094 -24.566406 L 1.621094 0 L 9.582031 0 L 9.582031 -9.335938 L 20.441406 -9.335938 L 20.441406 -15.230469 L 9.582031 -15.230469 Z M 9.582031 -18.425781 "/></g></g></g><g fill="#ecba7f" fill-opacity="1"><g transform="translate(587.481975, 448.178973)"><g><path d="M 12.875 0.394531 C 20.242188 0.394531 24.421875 -4.226562 24.421875 -12.285156 C 24.421875 -20.390625 20.242188 -24.960938 12.875 -24.960938 C 5.503906 -24.960938 1.328125 -20.390625 1.328125 -12.285156 C 1.328125 -4.226562 5.503906 0.394531 12.875 0.394531 Z M 12.875 -6.535156 C 10.515625 -6.535156 9.1875 -8.597656 9.1875 -12.285156 C 9.1875 -16.019531 10.515625 -18.082031 12.875 -18.082031 C 15.183594 -18.082031 16.507812 -16.019531 16.558594 -12.285156 C 16.507812 -8.597656 15.183594 -6.535156 12.875 -6.535156 Z M 12.875 -6.535156 "/></g></g></g><g fill="#ecba7f" fill-opacity="1"><g transform="translate(613.17959, 448.178973)"><g><path d="M 20.195312 -10.613281 C 22.011719 -11.890625 22.996094 -13.953125 22.996094 -16.707031 C 22.996094 -21.71875 19.949219 -24.566406 14.59375 -24.566406 L 1.621094 -24.566406 L 1.621094 0 L 9.582031 0 L 9.582031 -8.84375 L 12.53125 -8.84375 C 14.496094 -8.5 15.574219 -7.171875 15.574219 -5.0625 L 15.574219 0 L 22.847656 0 L 22.847656 -4.027344 C 22.847656 -6.976562 21.914062 -9.238281 20.195312 -10.613281 Z M 13.511719 -14.742188 L 9.582031 -14.742188 L 9.582031 -18.425781 L 13.511719 -18.425781 C 14.988281 -18.425781 15.871094 -17.789062 15.871094 -16.558594 C 15.871094 -15.429688 14.988281 -14.742188 13.511719 -14.742188 Z M 13.511719 -14.742188 "/></g></g></g><g fill="#ecba7f" fill-opacity="1"><g transform="translate(637.501431, 448.178973)"><g/></g></g><g fill="#ecba7f" fill-opacity="1"><g transform="translate(644.134656, 448.178973)"><g><path d="M 9.582031 -18.425781 L 20.441406 -18.425781 L 20.441406 -24.566406 L 1.621094 -24.566406 L 1.621094 0 L 9.582031 0 L 9.582031 -9.335938 L 20.441406 -9.335938 L 20.441406 -15.230469 L 9.582031 -15.230469 Z M 9.582031 -18.425781 "/></g></g></g><g fill="#ecba7f" fill-opacity="1"><g transform="translate(666.196277, 448.178973)"><g><path d="M 20.195312 -10.613281 C 22.011719 -11.890625 22.996094 -13.953125 22.996094 -16.707031 C 22.996094 -21.71875 19.949219 -24.566406 14.59375 -24.566406 L 1.621094 -24.566406 L 1.621094 0 L 9.582031 0 L 9.582031 -8.84375 L 12.53125 -8.84375 C 14.496094 -8.5 15.574219 -7.171875 15.574219 -5.0625 L 15.574219 0 L 22.847656 0 L 22.847656 -4.027344 C 22.847656 -6.976562 21.914062 -9.238281 20.195312 -10.613281 Z M 13.511719 -14.742188 L 9.582031 -14.742188 L 9.582031 -18.425781 L 13.511719 -18.425781 C 14.988281 -18.425781 15.871094 -17.789062 15.871094 -16.558594 C 15.871094 -15.429688 14.988281 -14.742188 13.511719 -14.742188 Z M 13.511719 -14.742188 "/></g></g></g><g fill="#ecba7f" fill-opacity="1"><g transform="translate(690.518118, 448.178973)"><g><path d="M 1.621094 -24.566406 L 1.621094 -11.054688 C 1.621094 -3.785156 5.453125 0.394531 12.285156 0.394531 C 19.113281 0.394531 22.996094 -3.785156 22.996094 -11.054688 L 22.996094 -24.566406 L 14.988281 -24.566406 L 14.988281 -11.054688 C 14.988281 -8.15625 14.054688 -6.535156 12.332031 -6.535156 C 10.5625 -6.535156 9.582031 -8.15625 9.582031 -11.054688 L 9.582031 -24.566406 Z M 1.621094 -24.566406 "/></g></g></g><g fill="#ecba7f" fill-opacity="1"><g transform="translate(715.085629, 448.178973)"><g><path d="M 9.582031 -24.566406 L 1.621094 -24.566406 L 1.621094 0 L 9.582031 0 Z M 9.582031 -24.566406 "/></g></g></g><g fill="#ecba7f" fill-opacity="1"><g transform="translate(726.28841, 448.178973)"><g><path d="M 22.800781 -17.6875 L 22.800781 -24.566406 L 1.425781 -24.566406 L 1.425781 -17.6875 L 8.15625 -17.6875 L 8.15625 0 L 16.117188 0 L 16.117188 -17.6875 Z M 22.800781 -17.6875 "/></g></g></g><g fill="#ecba7f" fill-opacity="1"><g transform="translate(750.511981, 448.178973)"><g/></g></g><g fill="#ecba7f" fill-opacity="1"><g transform="translate(757.145205, 448.178973)"><g><path d="M 22.800781 -17.6875 L 22.800781 -24.566406 L 1.425781 -24.566406 L 1.425781 -17.6875 L 8.15625 -17.6875 L 8.15625 0 L 16.117188 0 L 16.117188 -17.6875 Z M 22.800781 -17.6875 "/></g></g></g><g fill="#ecba7f" fill-opacity="1"><g transform="translate(781.368776, 448.178973)"><g><path d="M 9.582031 -18.425781 L 20.441406 -18.425781 L 20.441406 -24.566406 L 1.621094 -24.566406 L 1.621094 0 L 20.441406 0 L 20.441406 -6.140625 L 9.582031 -6.140625 L 9.582031 -9.335938 L 20.441406 -9.335938 L 20.441406 -15.230469 L 9.582031 -15.230469 Z M 9.582031 -18.425781 "/></g></g></g><g fill="#ecba7f" fill-opacity="1"><g transform="translate(803.430398, 448.178973)"><g><path d="M 17.640625 -3.585938 L 18.917969 0 L 26.679688 0 L 17.589844 -24.566406 L 9.53125 -24.566406 L 0.34375 0 L 8.058594 0 L 9.386719 -3.585938 Z M 15.476562 -9.484375 L 11.546875 -9.484375 L 13.5625 -16.214844 Z M 15.476562 -9.484375 "/></g></g></g><g fill="#ecba7f" fill-opacity="1"><g transform="translate(565.420353, 593.759222)"><g><path d="M 9.582031 -18.425781 L 20.441406 -18.425781 L 20.441406 -24.566406 L 1.621094 -24.566406 L 1.621094 0 L 9.582031 0 L 9.582031 -9.335938 L 20.441406 -9.335938 L 20.441406 -15.230469 L 9.582031 -15.230469 Z M 9.582031 -18.425781 "/></g></g></g><g fill="#ecba7f" fill-opacity="1"><g transform="translate(587.481975, 593.759222)"><g><path d="M 12.875 0.394531 C 20.242188 0.394531 24.421875 -4.226562 24.421875 -12.285156 C 24.421875 -20.390625 20.242188 -24.960938 12.875 -24.960938 C 5.503906 -24.960938 1.328125 -20.390625 1.328125 -12.285156 C 1.328125 -4.226562 5.503906 0.394531 12.875 0.394531 Z M 12.875 -6.535156 C 10.515625 -6.535156 9.1875 -8.597656 9.1875 -12.285156 C 9.1875 -16.019531 10.515625 -18.082031 12.875 -18.082031 C 15.183594 -18.082031 16.507812 -16.019531 16.558594 -12.285156 C 16.507812 -8.597656 15.183594 -6.535156 12.875 -6.535156 Z M 12.875 -6.535156 "/></g></g></g><g fill="#ecba7f" fill-opacity="1"><g transform="translate(613.17959, 593.759222)"><g><path d="M 20.195312 -10.613281 C 22.011719 -11.890625 22.996094 -13.953125 22.996094 -16.707031 C 22.996094 -21.71875 19.949219 -24.566406 14.59375 -24.566406 L 1.621094 -24.566406 L 1.621094 0 L 9.582031 0 L 9.582031 -8.84375 L 12.53125 -8.84375 C 14.496094 -8.5 15.574219 -7.171875 15.574219 -5.0625 L 15.574219 0 L 22.847656 0 L 22.847656 -4.027344 C 22.847656 -6.976562 21.914062 -9.238281 20.195312 -10.613281 Z M 13.511719 -14.742188 L 9.582031 -14.742188 L 9.582031 -18.425781 L 13.511719 -18.425781 C 14.988281 -18.425781 15.871094 -17.789062 15.871094 -16.558594 C 15.871094 -15.429688 14.988281 -14.742188 13.511719 -14.742188 Z M 13.511719 -14.742188 "/></g></g></g><g fill="#ecba7f" fill-opacity="1"><g transform="translate(637.501431, 593.759222)"><g/></g></g><g fill="#ecba7f" fill-opacity="1"><g transform="translate(644.134656, 593.759222)"><g><path d="M 20.441406 -6.878906 L 9.582031 -6.878906 L 9.582031 -24.566406 L 1.621094 -24.566406 L 1.621094 0 L 20.441406 0 Z M 20.441406 -6.878906 "/></g></g></g><g fill="#ecba7f" fill-opacity="1"><g transform="translate(665.950606, 593.759222)"><g><path d="M 9.582031 -18.425781 L 20.441406 -18.425781 L 20.441406 -24.566406 L 1.621094 -24.566406 L 1.621094 0 L 20.441406 0 L 20.441406 -6.140625 L 9.582031 -6.140625 L 9.582031 -9.335938 L 20.441406 -9.335938 L 20.441406 -15.230469 L 9.582031 -15.230469 Z M 9.582031 -18.425781 "/></g></g></g><g fill="#ecba7f" fill-opacity="1"><g transform="translate(688.012228, 593.759222)"><g><path d="M 28.644531 0 L 28.644531 -24.566406 L 21.519531 -24.566406 L 15.132812 -11.742188 L 8.746094 -24.566406 L 1.621094 -24.566406 L 1.621094 0 L 9.582031 0 L 9.582031 -9.875 L 13.5625 -2.652344 L 16.707031 -2.652344 L 20.636719 -9.875 L 20.636719 0 Z M 28.644531 0 "/></g></g></g><g fill="#ecba7f" fill-opacity="1"><g transform="translate(718.230271, 593.759222)"><g><path d="M 12.875 0.394531 C 20.242188 0.394531 24.421875 -4.226562 24.421875 -12.285156 C 24.421875 -20.390625 20.242188 -24.960938 12.875 -24.960938 C 5.503906 -24.960938 1.328125 -20.390625 1.328125 -12.285156 C 1.328125 -4.226562 5.503906 0.394531 12.875 0.394531 Z M 12.875 -6.535156 C 10.515625 -6.535156 9.1875 -8.597656 9.1875 -12.285156 C 9.1875 -16.019531 10.515625 -18.082031 12.875 -18.082031 C 15.183594 -18.082031 16.507812 -16.019531 16.558594 -12.285156 C 16.507812 -8.597656 15.183594 -6.535156 12.875 -6.535156 Z M 12.875 -6.535156 "/></g></g></g><g fill="#ecba7f" fill-opacity="1"><g transform="translate(743.927887, 593.759222)"><g><path d="M 1.621094 0 L 9.582031 0 L 9.582031 -11.398438 L 16.265625 -0.0507812 L 22.996094 0 L 22.996094 -24.566406 L 14.988281 -24.566406 L 14.988281 -13.21875 L 8.351562 -24.617188 L 1.621094 -24.617188 Z M 1.621094 0 "/></g></g></g><g fill="#ecba7f" fill-opacity="1"><g transform="translate(768.495386, 593.759222)"><g><path d="M 17.640625 -3.585938 L 18.917969 0 L 26.679688 0 L 17.589844 -24.566406 L 9.53125 -24.566406 L 0.34375 0 L 8.058594 0 L 9.386719 -3.585938 Z M 15.476562 -9.484375 L 11.546875 -9.484375 L 13.5625 -16.214844 Z M 15.476562 -9.484375 "/></g></g></g><g fill="#ecba7f" fill-opacity="1"><g transform="translate(795.470528, 593.759222)"><g><path d="M 11.449219 -24.566406 L 1.621094 -24.566406 L 1.621094 0 L 11.449219 0 C 18.820312 0 22.996094 -4.421875 22.996094 -12.285156 C 22.996094 -20.144531 18.820312 -24.566406 11.449219 -24.566406 Z M 11.941406 -6.878906 L 9.582031 -6.878906 L 9.582031 -17.6875 L 11.941406 -17.6875 C 13.953125 -17.6875 15.132812 -15.773438 15.132812 -12.285156 C 15.132812 -8.84375 13.953125 -6.878906 11.941406 -6.878906 Z M 11.941406 -6.878906 "/></g></g></g><g fill="#ecba7f" fill-opacity="1"><g transform="translate(819.694099, 593.759222)"><g><path d="M 9.582031 -18.425781 L 20.441406 -18.425781 L 20.441406 -24.566406 L 1.621094 -24.566406 L 1.621094 0 L 20.441406 0 L 20.441406 -6.140625 L 9.582031 -6.140625 L 9.582031 -9.335938 L 20.441406 -9.335938 L 20.441406 -15.230469 L 9.582031 -15.230469 Z M 9.582031 -18.425781 "/></g></g></g><g fill="#603e33" fill-opacity="1"><g transform="translate(591.295176, 350.53563)"><g><path d="M 19.242188 -12.710938 C 21.253906 -13.644531 22.332031 -15.3125 22.332031 -17.621094 C 22.332031 -22.039062 19.488281 -24.542969 14.382812 -24.542969 L 1.621094 -24.542969 L 1.621094 0 L 13.054688 0 C 19.832031 0 23.660156 -2.503906 23.660156 -6.921875 C 23.660156 -9.769531 22.136719 -11.78125 19.242188 -12.710938 Z M 9.472656 -15.265625 L 9.472656 -18.40625 L 13.253906 -18.40625 C 14.429688 -18.257812 15.070312 -17.671875 15.070312 -16.738281 C 15.070312 -15.804688 14.429688 -15.265625 13.253906 -15.265625 Z M 13.742188 -6.136719 L 9.472656 -6.136719 L 9.472656 -9.621094 L 13.742188 -9.621094 C 15.117188 -9.621094 15.902344 -8.984375 15.902344 -7.851562 C 15.902344 -6.773438 15.117188 -6.136719 13.742188 -6.136719 Z M 13.742188 -6.136719 "/></g></g></g><g fill="#603e33" fill-opacity="1"><g transform="translate(616.326228, 350.53563)"><g><path d="M 12.859375 0.394531 C 20.222656 0.394531 24.394531 -4.222656 24.394531 -12.269531 C 24.394531 -20.371094 20.222656 -24.933594 12.859375 -24.933594 C 5.496094 -24.933594 1.324219 -20.371094 1.324219 -12.269531 C 1.324219 -4.222656 5.496094 0.394531 12.859375 0.394531 Z M 12.859375 -6.527344 C 10.503906 -6.527344 9.179688 -8.589844 9.179688 -12.269531 C 9.179688 -16 10.503906 -18.0625 12.859375 -18.0625 C 15.167969 -18.0625 16.492188 -16 16.542969 -12.269531 C 16.492188 -8.589844 15.167969 -6.527344 12.859375 -6.527344 Z M 12.859375 -6.527344 "/></g></g></g><g fill="#603e33" fill-opacity="1"><g transform="translate(641.995323, 350.53563)"><g><path d="M 19.242188 -12.710938 C 21.253906 -13.644531 22.332031 -15.3125 22.332031 -17.621094 C 22.332031 -22.039062 19.488281 -24.542969 14.382812 -24.542969 L 1.621094 -24.542969 L 1.621094 0 L 13.054688 0 C 19.832031 0 23.660156 -2.503906 23.660156 -6.921875 C 23.660156 -9.769531 22.136719 -11.78125 19.242188 -12.710938 Z M 9.472656 -15.265625 L 9.472656 -18.40625 L 13.253906 -18.40625 C 14.429688 -18.257812 15.070312 -17.671875 15.070312 -16.738281 C 15.070312 -15.804688 14.429688 -15.265625 13.253906 -15.265625 Z M 13.742188 -6.136719 L 9.472656 -6.136719 L 9.472656 -9.621094 L 13.742188 -9.621094 C 15.117188 -9.621094 15.902344 -8.984375 15.902344 -7.851562 C 15.902344 -6.773438 15.117188 -6.136719 13.742188 -6.136719 Z M 13.742188 -6.136719 "/></g></g></g><g fill="#603e33" fill-opacity="1"><g transform="translate(667.026374, 350.53563)"><g><path d="M 17.621094 -3.582031 L 18.898438 0 L 26.652344 0 L 17.570312 -24.542969 L 9.523438 -24.542969 L 0.34375 0 L 8.050781 0 L 9.375 -3.582031 Z M 15.460938 -9.472656 L 11.535156 -9.472656 L 13.546875 -16.199219 Z M 15.460938 -9.472656 "/></g></g></g><g fill="#603e33" fill-opacity="1"><g transform="translate(693.971557, 350.53563)"><g/></g></g><g fill="#603e33" fill-opacity="1"><g transform="translate(700.597427, 350.53563)"><g><path d="M 14.578125 -24.542969 L 1.621094 -24.542969 L 1.621094 0 L 9.570312 0 L 9.570312 -8.6875 L 15.214844 -8.6875 C 20.171875 -9.03125 22.972656 -11.78125 22.972656 -16.542969 C 22.972656 -21.644531 19.929688 -24.542969 14.578125 -24.542969 Z M 13.5 -14.726562 L 9.570312 -14.726562 L 9.570312 -18.40625 L 13.5 -18.40625 C 14.972656 -18.40625 15.855469 -17.71875 15.855469 -16.542969 C 15.855469 -15.414062 14.972656 -14.726562 13.5 -14.726562 Z M 13.5 -14.726562 "/></g></g></g><g fill="#603e33" fill-opacity="1"><g transform="translate(724.597787, 350.53563)"><g><path d="M 9.570312 -18.40625 L 20.417969 -18.40625 L 20.417969 -24.542969 L 1.621094 -24.542969 L 1.621094 0 L 20.417969 0 L 20.417969 -6.136719 L 9.570312 -6.136719 L 9.570312 -9.324219 L 20.417969 -9.324219 L 20.417969 -15.214844 L 9.570312 -15.214844 Z M 9.570312 -18.40625 "/></g></g></g><g fill="#603e33" fill-opacity="1"><g transform="translate(746.634925, 350.53563)"><g><path d="M 17.621094 -3.582031 L 18.898438 0 L 26.652344 0 L 17.570312 -24.542969 L 9.523438 -24.542969 L 0.34375 0 L 8.050781 0 L 9.375 -3.582031 Z M 15.460938 -9.472656 L 11.535156 -9.472656 L 13.546875 -16.199219 Z M 15.460938 -9.472656 "/></g></g></g><g fill="#603e33" fill-opacity="1"><g transform="translate(773.580108, 350.53563)"><g><path d="M 20.171875 -10.601562 C 21.988281 -11.878906 22.972656 -13.941406 22.972656 -16.6875 C 22.972656 -21.695312 19.929688 -24.542969 14.578125 -24.542969 L 1.621094 -24.542969 L 1.621094 0 L 9.570312 0 L 9.570312 -8.835938 L 12.515625 -8.835938 C 14.480469 -8.492188 15.558594 -7.167969 15.558594 -5.054688 L 15.558594 0 L 22.824219 0 L 22.824219 -4.023438 C 22.824219 -6.96875 21.890625 -9.226562 20.171875 -10.601562 Z M 13.5 -14.726562 L 9.570312 -14.726562 L 9.570312 -18.40625 L 13.5 -18.40625 C 14.972656 -18.40625 15.855469 -17.769531 15.855469 -16.542969 C 15.855469 -15.414062 14.972656 -14.726562 13.5 -14.726562 Z M 13.5 -14.726562 "/></g></g></g><g fill="#603e33" fill-opacity="1"><g transform="translate(797.874945, 350.53563)"><g><path d="M 20.417969 -6.871094 L 9.570312 -6.871094 L 9.570312 -24.542969 L 1.621094 -24.542969 L 1.621094 0 L 20.417969 0 Z M 20.417969 -6.871094 "/></g></g></g><g fill="#603e33" fill-opacity="1"><g transform="translate(819.666686, 350.53563)"><g><path d="M 12.46875 0.34375 C 6.921875 0.394531 2.996094 -2.257812 1.621094 -6.96875 L 8.148438 -8.738281 C 8.738281 -6.921875 10.308594 -5.890625 12.46875 -5.890625 C 14.871094 -5.890625 16.246094 -6.429688 16.246094 -7.410156 C 16.246094 -10.257812 0.980469 -9.128906 0.980469 -17.375 C 0.980469 -22.1875 5.054688 -24.933594 12.320312 -24.933594 C 17.914062 -24.933594 21.84375 -22.285156 23.167969 -17.570312 L 16.6875 -15.804688 C 16.101562 -17.71875 14.527344 -18.800781 12.320312 -18.800781 C 9.914062 -18.800781 8.589844 -18.210938 8.589844 -17.179688 C 8.589844 -14.675781 23.804688 -15.460938 23.804688 -7.214844 C 23.804688 -2.308594 19.730469 0.441406 12.46875 0.34375 Z M 12.46875 0.34375 "/></g></g></g><g fill="#603e33" fill-opacity="1"><g transform="translate(591.295176, 496.115922)"><g><path d="M 1.621094 0 L 9.570312 0 L 9.570312 -11.386719 L 16.246094 -0.0507812 L 22.972656 0 L 22.972656 -24.542969 L 14.972656 -24.542969 L 14.972656 -13.203125 L 8.34375 -24.589844 L 1.621094 -24.589844 Z M 1.621094 0 "/></g></g></g><g fill="#603e33" fill-opacity="1"><g transform="translate(615.835422, 496.115922)"><g><path d="M 17.621094 -3.582031 L 18.898438 0 L 26.652344 0 L 17.570312 -24.542969 L 9.523438 -24.542969 L 0.34375 0 L 8.050781 0 L 9.375 -3.582031 Z M 15.460938 -9.472656 L 11.535156 -9.472656 L 13.546875 -16.199219 Z M 15.460938 -9.472656 "/></g></g></g><g fill="#603e33" fill-opacity="1"><g transform="translate(642.780605, 496.115922)"><g><path d="M 22.773438 -17.671875 L 22.773438 -24.542969 L 1.421875 -24.542969 L 1.421875 -17.671875 L 8.148438 -17.671875 L 8.148438 0 L 16.101562 0 L 16.101562 -17.671875 Z M 22.773438 -17.671875 "/></g></g></g><g fill="#603e33" fill-opacity="1"><g transform="translate(666.977282, 496.115922)"><g><path d="M 17.621094 -3.582031 L 18.898438 0 L 26.652344 0 L 17.570312 -24.542969 L 9.523438 -24.542969 L 0.34375 0 L 8.050781 0 L 9.375 -3.582031 Z M 15.460938 -9.472656 L 11.535156 -9.472656 L 13.546875 -16.199219 Z M 15.460938 -9.472656 "/></g></g></g><g fill="#603e33" fill-opacity="1"><g transform="translate(693.922465, 496.115922)"><g/></g></g><g fill="#603e33" fill-opacity="1"><g transform="translate(700.548335, 496.115922)"><g><path d="M 11.4375 -24.542969 L 1.621094 -24.542969 L 1.621094 0 L 11.4375 0 C 18.800781 0 22.972656 -4.417969 22.972656 -12.269531 C 22.972656 -20.125 18.800781 -24.542969 11.4375 -24.542969 Z M 11.925781 -6.871094 L 9.570312 -6.871094 L 9.570312 -17.671875 L 11.925781 -17.671875 C 13.941406 -17.671875 15.117188 -15.757812 15.117188 -12.269531 C 15.117188 -8.835938 13.941406 -6.871094 11.925781 -6.871094 Z M 11.925781 -6.871094 "/></g></g></g><g fill="#603e33" fill-opacity="1"><g transform="translate(724.745013, 496.115922)"><g><path d="M 9.570312 -18.40625 L 20.417969 -18.40625 L 20.417969 -24.542969 L 1.621094 -24.542969 L 1.621094 0 L 20.417969 0 L 20.417969 -6.136719 L 9.570312 -6.136719 L 9.570312 -9.324219 L 20.417969 -9.324219 L 20.417969 -15.214844 L 9.570312 -15.214844 Z M 9.570312 -18.40625 "/></g></g></g><g fill="#603e33" fill-opacity="1"><g transform="translate(746.782151, 496.115922)"><g/></g></g><g fill="#603e33" fill-opacity="1"><g transform="translate(753.408021, 496.115922)"><g><path d="M 15.460938 -10.257812 L 23.167969 -9.03125 C 21.941406 -3.042969 18.0625 0.394531 12.371094 0.394531 C 5.300781 0.394531 1.324219 -4.222656 1.324219 -12.269531 C 1.324219 -20.371094 5.300781 -24.933594 12.371094 -24.933594 C 18.0625 -24.933594 21.941406 -21.546875 23.167969 -15.511719 L 15.460938 -14.285156 C 15.070312 -16.6875 13.941406 -18.0625 12.417969 -18.0625 C 10.355469 -18.0625 9.179688 -16 9.179688 -12.269531 C 9.179688 -8.589844 10.355469 -6.527344 12.417969 -6.527344 C 14.039062 -6.527344 15.117188 -7.851562 15.460938 -10.257812 Z M 15.460938 -10.257812 "/></g></g></g><g fill="#603e33" fill-opacity="1"><g transform="translate(777.850107, 496.115922)"><g><path d="M 12.859375 0.394531 C 20.222656 0.394531 24.394531 -4.222656 24.394531 -12.269531 C 24.394531 -20.371094 20.222656 -24.933594 12.859375 -24.933594 C 5.496094 -24.933594 1.324219 -20.371094 1.324219 -12.269531 C 1.324219 -4.222656 5.496094 0.394531 12.859375 0.394531 Z M 12.859375 -6.527344 C 10.503906 -6.527344 9.179688 -8.589844 9.179688 -12.269531 C 9.179688 -16 10.503906 -18.0625 12.859375 -18.0625 C 15.167969 -18.0625 16.492188 -16 16.542969 -12.269531 C 16.492188 -8.589844 15.167969 -6.527344 12.859375 -6.527344 Z M 12.859375 -6.527344 "/></g></g></g><g fill="#603e33" fill-opacity="1"><g transform="translate(803.519191, 496.115922)"><g><path d="M 15.460938 -10.257812 L 23.167969 -9.03125 C 21.941406 -3.042969 18.0625 0.394531 12.371094 0.394531 C 5.300781 0.394531 1.324219 -4.222656 1.324219 -12.269531 C 1.324219 -20.371094 5.300781 -24.933594 12.371094 -24.933594 C 18.0625 -24.933594 21.941406 -21.546875 23.167969 -15.511719 L 15.460938 -14.285156 C 15.070312 -16.6875 13.941406 -18.0625 12.417969 -18.0625 C 10.355469 -18.0625 9.179688 -16 9.179688 -12.269531 C 9.179688 -8.589844 10.355469 -6.527344 12.417969 -6.527344 C 14.039062 -6.527344 15.117188 -7.851562 15.460938 -10.257812 Z M 15.460938 -10.257812 "/></g></g></g><g fill="#603e33" fill-opacity="1"><g transform="translate(827.961289, 496.115922)"><g><path d="M 12.859375 0.394531 C 20.222656 0.394531 24.394531 -4.222656 24.394531 -12.269531 C 24.394531 -20.371094 20.222656 -24.933594 12.859375 -24.933594 C 5.496094 -24.933594 1.324219 -20.371094 1.324219 -12.269531 C 1.324219 -4.222656 5.496094 0.394531 12.859375 0.394531 Z M 12.859375 -6.527344 C 10.503906 -6.527344 9.179688 -8.589844 9.179688 -12.269531 C 9.179688 -16 10.503906 -18.0625 12.859375 -18.0625 C 15.167969 -18.0625 16.492188 -16 16.542969 -12.269531 C 16.492188 -8.589844 15.167969 -6.527344 12.859375 -6.527344 Z M 12.859375 -6.527344 "/></g></g></g><g fill="#603e33" fill-opacity="1"><g transform="translate(591.295176, 641.696195)"><g><path d="M 24.640625 -24.542969 L 16.246094 -24.542969 L 12.566406 -16.589844 L 8.933594 -24.542969 L 0.539062 -24.542969 L 8.589844 -10.011719 L 8.589844 0 L 16.589844 0 L 16.589844 -10.011719 Z M 24.640625 -24.542969 "/></g></g></g><g fill="#603e33" fill-opacity="1"><g transform="translate(616.228069, 641.696195)"><g><path d="M 17.621094 -3.582031 L 18.898438 0 L 26.652344 0 L 17.570312 -24.542969 L 9.523438 -24.542969 L 0.34375 0 L 8.050781 0 L 9.375 -3.582031 Z M 15.460938 -9.472656 L 11.535156 -9.472656 L 13.546875 -16.199219 Z M 15.460938 -9.472656 "/></g></g></g><g fill="#603e33" fill-opacity="1"><g transform="translate(643.173252, 641.696195)"><g><path d="M 14.921875 0 L 23.21875 0 L 15.558594 -14.085938 L 23.070312 -24.542969 L 15.070312 -24.542969 L 9.570312 -16.738281 L 9.570312 -24.542969 L 1.621094 -24.542969 L 1.621094 0 L 9.570312 0 L 9.570312 -5.644531 L 10.847656 -7.511719 Z M 14.921875 0 "/></g></g></g><g fill="#603e33" fill-opacity="1"><g transform="translate(666.486489, 641.696195)"><g><path d="M 1.621094 -24.542969 L 1.621094 -11.042969 C 1.621094 -3.78125 5.449219 0.394531 12.269531 0.394531 C 19.09375 0.394531 22.972656 -3.78125 22.972656 -11.042969 L 22.972656 -24.542969 L 14.972656 -24.542969 L 14.972656 -11.042969 C 14.972656 -8.148438 14.039062 -6.527344 12.320312 -6.527344 C 10.554688 -6.527344 9.570312 -8.148438 9.570312 -11.042969 L 9.570312 -24.542969 Z M 1.621094 -24.542969 "/></g></g></g><g fill="#603e33" fill-opacity="1"><g transform="translate(691.026734, 641.696195)"><g><path d="M 20.417969 -6.871094 L 9.570312 -6.871094 L 9.570312 -24.542969 L 1.621094 -24.542969 L 1.621094 0 L 20.417969 0 Z M 20.417969 -6.871094 "/></g></g></g><g fill="#603e33" fill-opacity="1"><g transform="translate(712.818475, 641.696195)"><g><path d="M 22.773438 -17.671875 L 22.773438 -24.542969 L 1.421875 -24.542969 L 1.421875 -17.671875 L 8.148438 -17.671875 L 8.148438 0 L 16.101562 0 L 16.101562 -17.671875 Z M 22.773438 -17.671875 "/></g></g></g><g fill="#603e33" fill-opacity="1"><g transform="translate(591.295176, 399.01838)"><g><path d="M 15.460938 -10.257812 L 23.167969 -9.03125 C 21.941406 -3.042969 18.0625 0.394531 12.371094 0.394531 C 5.300781 0.394531 1.324219 -4.222656 1.324219 -12.269531 C 1.324219 -20.371094 5.300781 -24.933594 12.371094 -24.933594 C 18.0625 -24.933594 21.941406 -21.546875 23.167969 -15.511719 L 15.460938 -14.285156 C 15.070312 -16.6875 13.941406 -18.0625 12.417969 -18.0625 C 10.355469 -18.0625 9.179688 -16 9.179688 -12.269531 C 9.179688 -8.589844 10.355469 -6.527344 12.417969 -6.527344 C 14.039062 -6.527344 15.117188 -7.851562 15.460938 -10.257812 Z M 15.460938 -10.257812 "/></g></g></g><g fill="#603e33" fill-opacity="1"><g transform="translate(615.737263, 399.01838)"><g><path d="M 12.859375 0.394531 C 20.222656 0.394531 24.394531 -4.222656 24.394531 -12.269531 C 24.394531 -20.371094 20.222656 -24.933594 12.859375 -24.933594 C 5.496094 -24.933594 1.324219 -20.371094 1.324219 -12.269531 C 1.324219 -4.222656 5.496094 0.394531 12.859375 0.394531 Z M 12.859375 -6.527344 C 10.503906 -6.527344 9.179688 -8.589844 9.179688 -12.269531 C 9.179688 -16 10.503906 -18.0625 12.859375 -18.0625 C 15.167969 -18.0625 16.492188 -16 16.542969 -12.269531 C 16.492188 -8.589844 15.167969 -6.527344 12.859375 -6.527344 Z M 12.859375 -6.527344 "/></g></g></g><g fill="#603e33" fill-opacity="1"><g transform="translate(641.406358, 399.01838)"><g><path d="M 9.570312 -18.40625 L 20.417969 -18.40625 L 20.417969 -24.542969 L 1.621094 -24.542969 L 1.621094 0 L 9.570312 0 L 9.570312 -9.324219 L 20.417969 -9.324219 L 20.417969 -15.214844 L 9.570312 -15.214844 Z M 9.570312 -18.40625 "/></g></g></g><g fill="#603e33" fill-opacity="1"><g transform="translate(663.443496, 399.01838)"><g><path d="M 9.570312 -18.40625 L 20.417969 -18.40625 L 20.417969 -24.542969 L 1.621094 -24.542969 L 1.621094 0 L 9.570312 0 L 9.570312 -9.324219 L 20.417969 -9.324219 L 20.417969 -15.214844 L 9.570312 -15.214844 Z M 9.570312 -18.40625 "/></g></g></g><g fill="#603e33" fill-opacity="1"><g transform="translate(685.480634, 399.01838)"><g><path d="M 9.570312 -18.40625 L 20.417969 -18.40625 L 20.417969 -24.542969 L 1.621094 -24.542969 L 1.621094 0 L 20.417969 0 L 20.417969 -6.136719 L 9.570312 -6.136719 L 9.570312 -9.324219 L 20.417969 -9.324219 L 20.417969 -15.214844 L 9.570312 -15.214844 Z M 9.570312 -18.40625 "/></g></g></g><g fill="#603e33" fill-opacity="1"><g transform="translate(707.517772, 399.01838)"><g><path d="M 9.570312 -18.40625 L 20.417969 -18.40625 L 20.417969 -24.542969 L 1.621094 -24.542969 L 1.621094 0 L 20.417969 0 L 20.417969 -6.136719 L 9.570312 -6.136719 L 9.570312 -9.324219 L 20.417969 -9.324219 L 20.417969 -15.214844 L 9.570312 -15.214844 Z M 9.570312 -18.40625 "/></g></g></g><g fill="#603e33" fill-opacity="1"><g transform="translate(729.55491, 399.01838)"><g/></g></g><g fill="#603e33" fill-opacity="1"><g transform="translate(736.18078, 399.01838)"><g><path d="M 9.179688 -12.417969 L 1.324219 -10.796875 C 1.324219 -3.679688 5.152344 0.394531 11.976562 0.394531 C 18.800781 0.394531 22.675781 -3.679688 22.675781 -10.796875 L 22.675781 -24.542969 L 14.675781 -24.542969 L 14.675781 -10.796875 C 14.675781 -8.050781 13.742188 -6.527344 12.027344 -6.527344 C 10.210938 -6.527344 9.179688 -8.050781 9.179688 -10.796875 Z M 9.179688 -12.417969 "/></g></g></g><g fill="#603e33" fill-opacity="1"><g transform="translate(760.426537, 399.01838)"><g><path d="M 9.570312 -18.40625 L 20.417969 -18.40625 L 20.417969 -24.542969 L 1.621094 -24.542969 L 1.621094 0 L 20.417969 0 L 20.417969 -6.136719 L 9.570312 -6.136719 L 9.570312 -9.324219 L 20.417969 -9.324219 L 20.417969 -15.214844 L 9.570312 -15.214844 Z M 9.570312 -18.40625 "/></g></g></g><g fill="#603e33" fill-opacity="1"><g transform="translate(782.463664, 399.01838)"><g><path d="M 20.417969 -6.871094 L 9.570312 -6.871094 L 9.570312 -24.542969 L 1.621094 -24.542969 L 1.621094 0 L 20.417969 0 Z M 20.417969 -6.871094 "/></g></g></g><g fill="#603e33" fill-opacity="1"><g transform="translate(804.255405, 399.01838)"><g><path d="M 20.417969 -6.871094 L 9.570312 -6.871094 L 9.570312 -24.542969 L 1.621094 -24.542969 L 1.621094 0 L 20.417969 0 Z M 20.417969 -6.871094 "/></g></g></g><g fill="#603e33" fill-opacity="1"><g transform="translate(826.047146, 399.01838)"><g><path d="M 24.640625 -24.542969 L 16.246094 -24.542969 L 12.566406 -16.589844 L 8.933594 -24.542969 L 0.539062 -24.542969 L 8.589844 -10.011719 L 8.589844 0 L 16.589844 0 L 16.589844 -10.011719 Z M 24.640625 -24.542969 "/></g></g></g><g fill="#603e33" fill-opacity="1"><g transform="translate(591.295176, 544.598607)"><g><path d="M 9.570312 -18.40625 L 20.417969 -18.40625 L 20.417969 -24.542969 L 1.621094 -24.542969 L 1.621094 0 L 9.570312 0 L 9.570312 -9.324219 L 20.417969 -9.324219 L 20.417969 -15.214844 L 9.570312 -15.214844 Z M 9.570312 -18.40625 "/></g></g></g><g fill="#603e33" fill-opacity="1"><g transform="translate(613.332314, 544.598607)"><g><path d="M 20.171875 -10.601562 C 21.988281 -11.878906 22.972656 -13.941406 22.972656 -16.6875 C 22.972656 -21.695312 19.929688 -24.542969 14.578125 -24.542969 L 1.621094 -24.542969 L 1.621094 0 L 9.570312 0 L 9.570312 -8.835938 L 12.515625 -8.835938 C 14.480469 -8.492188 15.558594 -7.167969 15.558594 -5.054688 L 15.558594 0 L 22.824219 0 L 22.824219 -4.023438 C 22.824219 -6.96875 21.890625 -9.226562 20.171875 -10.601562 Z M 13.5 -14.726562 L 9.570312 -14.726562 L 9.570312 -18.40625 L 13.5 -18.40625 C 14.972656 -18.40625 15.855469 -17.769531 15.855469 -16.542969 C 15.855469 -15.414062 14.972656 -14.726562 13.5 -14.726562 Z M 13.5 -14.726562 "/></g></g></g><g fill="#603e33" fill-opacity="1"><g transform="translate(637.627151, 544.598607)"><g><path d="M 1.621094 -24.542969 L 1.621094 -11.042969 C 1.621094 -3.78125 5.449219 0.394531 12.269531 0.394531 C 19.09375 0.394531 22.972656 -3.78125 22.972656 -11.042969 L 22.972656 -24.542969 L 14.972656 -24.542969 L 14.972656 -11.042969 C 14.972656 -8.148438 14.039062 -6.527344 12.320312 -6.527344 C 10.554688 -6.527344 9.570312 -8.148438 9.570312 -11.042969 L 9.570312 -24.542969 Z M 1.621094 -24.542969 "/></g></g></g><g fill="#603e33" fill-opacity="1"><g transform="translate(662.167396, 544.598607)"><g><path d="M 9.570312 -24.542969 L 1.621094 -24.542969 L 1.621094 0 L 9.570312 0 Z M 9.570312 -24.542969 "/></g></g></g><g fill="#603e33" fill-opacity="1"><g transform="translate(673.357743, 544.598607)"><g><path d="M 22.773438 -17.671875 L 22.773438 -24.542969 L 1.421875 -24.542969 L 1.421875 -17.671875 L 8.148438 -17.671875 L 8.148438 0 L 16.101562 0 L 16.101562 -17.671875 Z M 22.773438 -17.671875 "/></g></g></g><g fill="#603e33" fill-opacity="1"><g transform="translate(697.554421, 544.598607)"><g/></g></g><g fill="#603e33" fill-opacity="1"><g transform="translate(704.180291, 544.598607)"><g><path d="M 9.179688 -12.417969 L 1.324219 -10.796875 C 1.324219 -3.679688 5.152344 0.394531 11.976562 0.394531 C 18.800781 0.394531 22.675781 -3.679688 22.675781 -10.796875 L 22.675781 -24.542969 L 14.675781 -24.542969 L 14.675781 -10.796875 C 14.675781 -8.050781 13.742188 -6.527344 12.027344 -6.527344 C 10.210938 -6.527344 9.179688 -8.050781 9.179688 -10.796875 Z M 9.179688 -12.417969 "/></g></g></g><g fill="#603e33" fill-opacity="1"><g transform="translate(728.426049, 544.598607)"><g><path d="M 9.570312 -18.40625 L 20.417969 -18.40625 L 20.417969 -24.542969 L 1.621094 -24.542969 L 1.621094 0 L 20.417969 0 L 20.417969 -6.136719 L 9.570312 -6.136719 L 9.570312 -9.324219 L 20.417969 -9.324219 L 20.417969 -15.214844 L 9.570312 -15.214844 Z M 9.570312 -18.40625 "/></g></g></g><g fill="#603e33" fill-opacity="1"><g transform="translate(750.463187, 544.598607)"><g><path d="M 20.417969 -6.871094 L 9.570312 -6.871094 L 9.570312 -24.542969 L 1.621094 -24.542969 L 1.621094 0 L 20.417969 0 Z M 20.417969 -6.871094 "/></g></g></g><g fill="#603e33" fill-opacity="1"><g transform="translate(772.254927, 544.598607)"><g><path d="M 20.417969 -6.871094 L 9.570312 -6.871094 L 9.570312 -24.542969 L 1.621094 -24.542969 L 1.621094 0 L 20.417969 0 Z M 20.417969 -6.871094 "/></g></g></g><g fill="#603e33" fill-opacity="1"><g transform="translate(794.04668, 544.598607)"><g><path d="M 24.640625 -24.542969 L 16.246094 -24.542969 L 12.566406 -16.589844 L 8.933594 -24.542969 L 0.539062 -24.542969 L 8.589844 -10.011719 L 8.589844 0 L 16.589844 0 L 16.589844 -10.011719 Z M 24.640625 -24.542969 "/></g></g></g></svg>